<svg width="11" height="19" viewBox="0 0 11 19" fill="none" xmlns="http://www.w3.org/2000/svg">
<path d="M9.60952 11.9296C8.63088 12.5511 7.28431 12.7975 6.39495 12.8904L7.14143 13.6261L9.86665 16.3514C10.8632 17.3729 9.24155 18.9695 8.2344 17.9837C7.55219 17.2907 6.55203 16.2906 5.50917 15.2477L2.78394 17.9801C1.77671 18.9623 0.155153 17.3514 1.16238 16.3477C1.85529 15.6548 2.84467 14.6548 3.88761 13.6226L4.62339 12.8868C3.74477 12.7939 2.3768 12.5617 1.38739 11.9261C0.222996 11.1759 -0.287738 10.7366 0.162271 9.81868C0.426566 9.2972 1.15161 8.85789 2.11243 9.6151C2.11243 9.6151 3.40897 10.6473 5.50201 10.6473C7.59498 10.6473 8.89156 9.6151 8.89156 9.6151C9.85234 8.86143 10.5738 9.2972 10.8417 9.81868C11.2847 10.7366 10.7739 11.1759 9.60952 11.9296ZM0.865918 4.63252C0.865918 2.07161 2.94822 0 5.49847 0C8.04868 0 10.131 2.07161 10.131 4.63252C10.131 7.18277 8.04872 9.25433 5.49847 9.25433C2.94826 9.25433 0.865918 7.18277 0.865918 4.63252ZM3.22329 4.63252C3.22329 5.88619 4.2448 6.90769 5.49847 6.90769C6.75206 6.90769 7.77361 5.88619 7.77361 4.63252C7.77361 3.36811 6.75206 2.34664 5.49847 2.34664C4.2448 2.34664 3.22329 3.36811 3.22329 4.63252Z" fill="white"/>
</svg>
