<svg width="18" height="18" viewBox="0 0 18 18" fill="none" xmlns="http://www.w3.org/2000/svg">
<path d="M9.37498 12.3751C9.74998 12.3751 9.74998 11.8501 9.74998 11.6251C9.74998 11.2501 10.125 10.8751 10.5 10.8751C10.875 10.8751 11.5125 11.5126 12 12.0001C12.375 12.3751 12.375 12.3751 12.75 12.3751C13.125 12.3751 13.875 12.3751 13.875 12.3751C13.875 12.3751 14.625 12.3376 14.625 11.6251C14.625 11.4001 14.3625 10.9876 13.5 10.1251C12.75 9.37506 12.375 9.75006 13.5 8.25006C14.175 7.31256 14.7 6.48756 14.625 6.26256C14.55 6.03756 12.6375 5.66256 12.375 6.00006C11.625 7.12506 11.475 7.38756 11.25 7.87506C10.875 8.62506 10.8375 9.00006 10.5 9.00006C10.1625 9.00006 10.125 8.28756 10.125 7.87506C10.125 6.63756 10.3125 5.77506 9.74998 5.62506C9.74998 5.62506 8.99998 5.62506 8.62498 5.62506C8.02498 5.62506 7.49998 6.00006 7.49998 6.00006C7.49998 6.00006 7.04998 6.37506 7.12498 6.37506C7.23748 6.37506 7.87498 6.22506 7.87498 6.75006C7.87498 7.12506 7.87498 7.50006 7.87498 7.50006C7.87498 7.50006 7.87498 9.00006 7.49998 9.00006C7.12498 9.00006 6.37498 7.50006 5.62498 6.37506C5.32498 5.92506 5.24998 6.00006 4.87498 6.00006C4.46248 6.00006 4.12498 6.00006 3.74998 6.00006C3.37498 6.00006 3.33748 6.22506 3.37498 6.37506C4.12498 8.25006 4.64998 9.41256 6.07498 10.9126C7.38748 12.2626 8.24998 12.3376 8.99998 12.3751C9.18748 12.3751 8.99998 12.3751 9.37498 12.3751Z" fill="white"/>
<path d="M9 0C4.0125 0 0 4.0125 0 9C0 13.9875 4.0125 18 9 18C13.9875 18 18 13.9875 18 9C18 4.0125 13.9875 0 9 0ZM9 16.125C5.0625 16.125 1.875 12.9375 1.875 9C1.875 5.0625 5.0625 1.875 9 1.875C12.9375 1.875 16.125 5.0625 16.125 9C16.125 12.9375 12.9375 16.125 9 16.125Z" fill="white"/>
</svg>
